<svg width="165" height="36" viewBox="0 0 165 36" fill="none" xmlns="http://www.w3.org/2000/svg">
<path d="M35.6087 17.7266L30.2589 19.0565C28.1783 30.9445 17.7754 30.2819 17.7754 30.2819V35.4509C22.1266 35.5645 25.9495 33.5302 25.9495 33.5302C36.2018 28.3612 35.6087 17.7266 35.6087 17.7266Z" fill="white"/>
<path d="M35.0151 12.9252C30.5944 -0.586992 17.7031 0.00382065 17.7031 0.00382065L17.7773 5.17285C26.4518 5.38832 29.1464 12.3367 29.1464 12.3367H17.7031V17.6541L35.6105 17.7282C35.7009 15.2514 35.0151 12.9276 35.0151 12.9276V12.9252Z" fill="#2ABA4C"/>
<path d="M5.22269 18.464C5.22269 18.464 4.77784 13.4432 8.86256 8.86503L5.22269 5.17188C5.22269 5.17188 -2.50421 11.8909 0.839091 22.9681C0.839091 22.9681 3.1421 32.9377 15.0302 35.2269L15.1043 30.0578C15.1043 30.0578 6.04056 27.9911 5.22269 18.464Z" fill="white"/>
<path d="M10.7934 7.46311C12.6808 7.46311 14.2109 5.9424 14.2109 4.06651C14.2109 2.19063 12.6808 0.669922 10.7934 0.669922C8.90602 0.669922 7.37598 2.19063 7.37598 4.06651C7.37598 5.9424 8.90602 7.46311 10.7934 7.46311Z" fill="white"/>
<path d="M124.643 17.715C124.643 14.2558 124.657 10.7944 124.636 7.33522C124.629 6.23468 125.025 5.57436 126.353 5.58363C131.42 5.6207 136.487 5.59753 141.554 5.59753C142.288 5.59753 143.025 5.61838 143.76 5.59058C144.334 5.56973 144.761 5.77362 145.143 6.20456C147.525 8.88986 149.93 11.5543 152.304 14.2442C152.624 14.6057 152.768 14.5593 153.055 14.2327C155.275 11.7327 157.578 9.30227 159.716 6.73514C160.659 5.60448 161.741 5.47474 162.992 5.62534C163.919 5.73655 164.359 6.77221 163.891 7.63178C163.433 8.47282 162.717 9.10765 162.091 9.80968C159.918 12.2494 157.726 14.6729 155.525 17.0894C155.261 17.379 155.277 17.5273 155.532 17.8146C158.342 20.9772 161.13 24.1629 163.942 27.3232C164.42 27.8607 164.6 28.4214 164.338 29.0794C164.063 29.7676 163.437 29.8371 162.793 29.9019C161.748 30.0085 161.009 29.6563 160.3 28.8315C157.904 26.035 155.407 23.3242 152.972 20.5578C152.624 20.1616 152.499 20.4281 152.304 20.6436C149.758 23.4609 147.207 26.2713 144.672 29.098C144.186 29.6401 143.632 29.9043 142.893 29.9019C137.39 29.888 131.888 29.895 126.385 29.8927C125.118 29.8927 124.645 29.42 124.645 28.1457C124.645 24.6657 124.645 21.188 124.645 17.708L124.643 17.715ZM135.544 9.09607C133.331 9.09607 131.119 9.10765 128.908 9.0868C128.482 9.08217 128.329 9.17253 128.336 9.63591C128.366 11.3759 128.371 13.1159 128.336 14.8536C128.324 15.3865 128.44 15.5464 129.003 15.5417C132.842 15.5139 136.679 15.5278 140.518 15.5255C141.067 15.5255 141.623 15.5765 141.915 16.0955C142.284 16.7511 142.281 17.4833 141.978 18.1645C141.681 18.8271 141.091 19.0148 140.391 19.0125C136.552 19.0009 132.715 19.0125 128.876 18.9986C128.463 18.9986 128.334 19.082 128.341 19.5199C128.366 21.6375 128.366 23.7552 128.341 25.8728C128.336 26.32 128.48 26.3895 128.883 26.3895C133.155 26.3756 137.43 26.3779 141.702 26.3872C142.008 26.3872 142.226 26.3084 142.432 26.0721C144.862 23.3057 147.3 20.5439 149.749 17.7914C149.997 17.5134 150.02 17.3582 149.753 17.0639C147.46 14.5269 145.182 11.976 142.919 9.41349C142.685 9.14704 142.444 9.09607 142.129 9.09607C139.934 9.10302 137.743 9.09839 135.548 9.1007L135.544 9.09607Z" fill="#2BBA4D"/>
<path d="M67.6858 23.5082C67.6858 22.8155 67.6858 22.2872 67.6858 21.759C67.6858 16.9375 67.6858 12.116 67.6858 7.29218C67.6858 6.02019 68.1052 5.59851 69.3771 5.60083C69.7339 5.60083 70.107 5.57303 70.4476 5.65644C71.0152 5.79545 71.4044 6.36541 71.4044 6.97244C71.4068 14.1387 71.4068 21.3049 71.4044 28.4734C71.4044 29.2194 70.86 29.8102 70.0676 29.8867C69.5996 29.933 69.12 29.9284 68.6519 29.8844C68.2071 29.8427 67.8573 29.5948 67.563 29.2426C64.3703 25.4382 61.1706 21.6385 57.971 17.8388C56.3654 15.9319 54.7597 14.0251 53.1541 12.1183C53.1078 12.0627 53.0707 11.9909 52.9109 12.0256V12.5979C52.9109 17.7971 52.9109 22.9985 52.9109 28.1977C52.9109 29.3839 52.3409 29.9006 51.0388 29.9006C49.7691 29.9006 49.1436 29.3422 49.1436 28.1977C49.1436 21.2191 49.1436 14.2429 49.1436 7.26437C49.1436 6.16152 49.7135 5.67729 50.8094 5.57766C52.0374 5.46877 52.8344 5.95068 53.599 6.88672C57.8273 12.065 62.2318 17.0973 66.5667 22.1853C66.905 22.5838 67.241 22.9823 67.6858 23.5059V23.5082Z" fill="white"/>
<path d="M73.2442 17.7331C73.2442 14.311 73.2674 10.8889 73.2326 7.46682C73.221 6.33385 73.7794 5.55769 75.1186 5.58317C78.4086 5.64573 81.7055 5.48355 84.9863 5.65037C89.1173 5.8612 92.5858 7.43439 94.6756 11.2596C95.5282 12.8189 95.8827 14.5195 96.0171 16.2804C96.1631 18.1733 96.0797 20.0477 95.4935 21.8641C94.2285 25.7843 91.4319 28.0781 87.5789 29.2203C85.9617 29.6999 84.2935 29.876 82.6138 29.8945C80.1185 29.9223 77.6208 29.9015 75.1255 29.9015C73.8118 29.9015 73.2442 29.3315 73.2442 28.0016C73.2442 24.5795 73.2442 21.1575 73.2442 17.7354V17.7331ZM77.0601 17.7354C77.0601 20.4578 77.0694 23.1778 77.0509 25.9002C77.0485 26.308 77.1644 26.3937 77.5513 26.389C79.0828 26.3659 80.612 26.3705 82.1434 26.3821C83.4108 26.3914 84.6689 26.2964 85.9061 26.0322C88.6308 25.453 90.7346 24.0791 91.7447 21.3544C92.3981 19.5959 92.4074 17.7748 92.2012 15.9467C92.0297 14.4361 91.615 12.995 90.6442 11.7786C89.1521 9.90885 87.0622 9.29718 84.8079 9.15354C82.3937 9.00062 79.9725 9.13268 77.556 9.08171C77.0949 9.07244 77.0509 9.23926 77.0532 9.62619C77.0671 12.3277 77.0601 15.0315 77.0601 17.7354Z" fill="white"/>
<path d="M96.781 18.0441C96.7648 15.1874 97.2653 12.75 98.7968 10.6115C100.546 8.16714 102.958 6.70517 105.866 6.11436C109.253 5.42624 112.657 5.41002 115.96 6.54067C120.302 8.02813 122.902 11.0795 123.551 15.6369C124.007 18.8458 123.581 21.9412 121.801 24.7585C120.212 27.2724 117.872 28.7297 115.073 29.4711C110.868 30.5856 106.702 30.4744 102.754 28.498C99.5521 26.8947 97.7009 24.2002 97.0266 20.6924C96.8413 19.7262 96.7532 18.7508 96.7787 18.0418L96.781 18.0441ZM119.837 17.7476C119.837 17.502 119.848 17.2564 119.837 17.0108C119.654 13.4868 118.129 11.0146 114.723 9.84922C111.681 8.80661 108.576 8.846 105.532 9.92336C103.375 10.6856 101.843 12.1499 101.056 14.3255C100.599 15.5836 100.532 16.8926 100.544 18.2225C100.578 21.7211 102.444 24.5106 105.683 25.8151C107.745 26.6445 109.888 26.7627 112.068 26.5009C113.998 26.2692 115.752 25.6181 117.209 24.2928C119.139 22.5389 119.869 20.2962 119.837 17.7522V17.7476Z" fill="white"/>
<path d="M46.5584 20.6948C46.5584 23.1901 46.5422 25.6831 46.5677 28.1785C46.5747 28.9083 46.3013 29.4203 45.6664 29.7262C45.0107 30.0413 44.3365 29.9926 43.7249 29.6126C43.1688 29.2674 43.1804 28.6557 43.1781 28.0904C43.1711 25.521 43.1734 22.9515 43.1734 20.3797C43.1734 18.0559 43.1711 15.732 43.1757 13.4058C43.1757 12.9378 43.1688 12.4559 43.4769 12.0551C43.8175 11.6125 44.8254 11.4086 45.532 11.638C46.1483 11.8373 46.5492 12.3678 46.5515 13.0421C46.5584 15.593 46.5538 18.1439 46.5538 20.6948H46.5584Z" fill="white"/>
<path d="M46.5588 7.95527C46.5287 8.62022 46.6654 9.29676 46.2808 9.92696C45.8637 10.6081 45.2127 10.9163 44.3531 10.7518C43.6325 10.6151 43.2734 10.2328 43.2155 9.37322C43.1576 8.52986 43.1413 7.67724 43.1993 6.83388C43.2641 5.88395 44.0519 5.22131 44.93 5.27228C45.7571 5.32094 46.5565 6.1921 46.5588 7.04935C46.5588 7.35055 46.5588 7.65175 46.5588 7.95295V7.95527Z" fill="white"/>
</svg>
